<svg  width="37" height="55" viewBox="0 0 37 55" stroke="black" stroke-width="0.2" fill="none" xmlns="http://www.w3.org/2000/svg">
<path d="M18.12 45.84C15.88 45.84 13.84 45.4533 12 44.68C10.1867 43.9067 8.62667 42.8 7.32 41.36C6.01333 39.9467 5 38.2267 4.28 36.2C3.56 34.1733 3.2 31.92 3.2 29.44C3.2 26.96 3.56 24.6933 4.28 22.64C5.02667 20.56 6.05333 18.7867 7.36 17.32C8.69333 15.8267 10.2933 14.6667 12.16 13.84C14.0267 13.0133 16.1067 12.6 18.4 12.6C20.6667 12.6 22.7333 12.9867 24.6 13.76C26.4933 14.5067 28.1067 15.5733 29.44 16.96C30.8 18.3467 31.8533 20 32.6 21.92C33.3467 23.8133 33.72 25.92 33.72 28.24C33.72 29.6 33.6 30.8933 33.36 32.12C33.12 33.32 32.7333 34.3733 32.2 35.28C31.6667 36.1867 30.9733 36.9067 30.12 37.44C29.2933 37.9733 28.28 38.24 27.08 38.24C25.6933 38.24 24.64 37.92 23.92 37.28C23.2 36.64 22.7733 35.8 22.64 34.76H22.52C22.0133 35.8 21.3733 36.64 20.6 37.28C19.8267 37.92 18.8267 38.24 17.6 38.24C16.6933 38.24 15.84 38.0667 15.04 37.72C14.24 37.3467 13.5333 36.8 12.92 36.08C12.3067 35.36 11.8133 34.4533 11.44 33.36C11.0933 32.24 10.92 30.9333 10.92 29.44C10.92 27.9467 11.0933 26.6533 11.44 25.56C11.8133 24.44 12.3067 23.52 12.92 22.8C13.5333 22.08 14.24 21.5467 15.04 21.2C15.84 20.8267 16.6933 20.64 17.6 20.64C18.8267 20.64 19.8 20.9467 20.52 21.56C21.24 22.1733 21.7867 22.9067 22.16 23.76H22.28L23.4 21H24.88V33.64C24.88 35.6667 25.6667 36.68 27.24 36.68C28.6 36.68 29.6133 36.04 30.28 34.76C30.9733 33.48 31.32 31.4933 31.32 28.8V26.96C31.32 25.1733 31.0267 23.5067 30.44 21.96C29.88 20.4133 29.04 19.08 27.92 17.96C26.8267 16.8133 25.48 15.92 23.88 15.28C22.28 14.6133 20.4533 14.28 18.4 14.28C16.3467 14.28 14.52 14.64 12.92 15.36C11.3467 16.08 10.0133 17.0667 8.92 18.32C7.82667 19.5467 6.98667 21 6.4 22.68C5.84 24.36 5.56 26.1733 5.56 28.12V30.48C5.56 32.4533 5.85333 34.2667 6.44 35.92C7.02667 37.5733 7.86667 39 8.96 40.2C10.0533 41.3733 11.3733 42.2933 12.92 42.96C14.4667 43.6267 16.2133 43.96 18.16 43.96H27.16V45.16C25.8 45.3467 24.3867 45.5067 22.92 45.64C21.4533 45.7733 19.8533 45.84 18.12 45.84ZM18.04 36.2C19.4533 36.2 20.5067 35.8667 21.2 35.2C21.92 34.5067 22.28 33.52 22.28 32.24V26.64C22.28 25.36 21.92 24.3867 21.2 23.72C20.5067 23.0267 19.4533 22.68 18.04 22.68C16.6 22.68 15.5333 23.12 14.84 24C14.1733 24.8533 13.84 26 13.84 27.44V31.44C13.84 32.88 14.1733 34.04 14.84 34.92C15.5333 35.7733 16.6 36.2 18.04 36.2Z" fill="#f0f0f0"/>
</svg>
