<svg  xmlns="http://www.w3.org/2000/svg" xml:space="preserve" width="800" height="800" viewBox="0 0 495.554 495.554"><path fill='#2c2c2c' stroke="#2c2c2c" d="M353.732 451.163c3.388 10.912-2.324 22.536-13.024 26.545-35.256 13.208-68.455 17.846-111.453 17.846-118.188 0-222.136-84.711-222.136-224.283C7.118 126.042 112.492 0 273.4 0c125.316 0 215.036 86.156 215.036 205.784 0 103.949-58.388 169.434-135.282 169.434-33.456 0-57.69-17.076-61.225-54.813h-1.423c-22.095 36.324-54.124 54.813-91.861 54.813-46.298 0-79.753-34.171-79.753-92.557 0-86.842 64.092-165.898 166.625-165.898 17.074 0 35.438 2.328 51.491 6.064 19.1 4.444 31.434 22.886 28.295 42.243l-16.411 101.212c-7.14 42.037-2.152 61.253 17.79 61.949 30.619.728 69.051-38.442 69.051-120.326 0-92.557-59.801-164.484-170.16-164.484-108.937 0-204.36 85.459-204.36 221.447 0 118.902 76.209 186.558 182.278 186.558 28.226 0 57.728-4.744 82.85-13.864a21.125 21.125 0 0 1 16.591.935 21.123 21.123 0 0 1 10.792 12.646l.008.02zm-57.543-275.29c-5.686-1.423-12.815-2.847-22.064-2.847-47.017 0-84.035 46.27-84.035 101.11 0 27.053 12.117 44.117 35.594 44.117 26.346 0 54.125-33.443 60.527-74.754l9.978-67.626z"/></svg>