<svg width="296" height="32" viewBox="0 0 296 32" fill="none" xmlns="http://www.w3.org/2000/svg">
<path d="M22 31H18.36L3.72 8.8V31H0.0800003V3.08H3.72L18.36 25.24V3.08H22V31ZM30.085 5.52C29.3917 5.52 28.805 5.28 28.325 4.8C27.845 4.32 27.605 3.73333 27.605 3.04C27.605 2.34667 27.845 1.76 28.325 1.28C28.805 0.799999 29.3917 0.559999 30.085 0.559999C30.7517 0.559999 31.3117 0.799999 31.765 1.28C32.245 1.76 32.485 2.34667 32.485 3.04C32.485 3.73333 32.245 4.32 31.765 4.8C31.3117 5.28 30.7517 5.52 30.085 5.52ZM31.845 9.08V31H28.205V9.08H31.845ZM36.6888 20C36.6888 17.7333 37.1421 15.76 38.0488 14.08C38.9554 12.3733 40.2088 11.0533 41.8088 10.12C43.4354 9.18667 45.2888 8.72 47.3688 8.72C50.0621 8.72 52.2754 9.37333 54.0088 10.68C55.7688 11.9867 56.9288 13.8 57.4888 16.12H53.5688C53.1954 14.7867 52.4621 13.7333 51.3688 12.96C50.3021 12.1867 48.9688 11.8 47.3688 11.8C45.2888 11.8 43.6088 12.52 42.3288 13.96C41.0488 15.3733 40.4088 17.3867 40.4088 20C40.4088 22.64 41.0488 24.68 42.3288 26.12C43.6088 27.56 45.2888 28.28 47.3688 28.28C48.9688 28.28 50.3021 27.9067 51.3688 27.16C52.4354 26.4133 53.1688 25.3467 53.5688 23.96H57.4888C56.9021 26.2 55.7288 28 53.9688 29.36C52.2088 30.6933 50.0088 31.36 47.3688 31.36C45.2888 31.36 43.4354 30.8933 41.8088 29.96C40.2088 29.0267 38.9554 27.7067 38.0488 26C37.1421 24.2933 36.6888 22.2933 36.6888 20ZM73.2256 8.68C74.879 8.68 76.3723 9.04 77.7056 9.76C79.039 10.4533 80.079 11.5067 80.8256 12.92C81.599 14.3333 81.9856 16.0533 81.9856 18.08V31H78.3856V18.6C78.3856 16.4133 77.839 14.7467 76.7456 13.6C75.6523 12.4267 74.159 11.84 72.2656 11.84C70.3456 11.84 68.8123 12.44 67.6656 13.64C66.5456 14.84 65.9856 16.5867 65.9856 18.88V31H62.3456V1.4H65.9856V12.2C66.7056 11.08 67.6923 10.2133 68.9456 9.6C70.2256 8.98667 71.6523 8.68 73.2256 8.68ZM97.4916 31.36C95.4382 31.36 93.5716 30.8933 91.8916 29.96C90.2382 29.0267 88.9316 27.7067 87.9716 26C87.0382 24.2667 86.5716 22.2667 86.5716 20C86.5716 17.76 87.0516 15.7867 88.0116 14.08C88.9982 12.3467 90.3316 11.0267 92.0116 10.12C93.6916 9.18667 95.5716 8.72 97.6516 8.72C99.7316 8.72 101.612 9.18667 103.292 10.12C104.972 11.0267 106.292 12.3333 107.252 14.04C108.238 15.7467 108.732 17.7333 108.732 20C108.732 22.2667 108.225 24.2667 107.212 26C106.225 27.7067 104.878 29.0267 103.172 29.96C101.465 30.8933 99.5716 31.36 97.4916 31.36ZM97.4916 28.16C98.7982 28.16 100.025 27.8533 101.172 27.24C102.318 26.6267 103.238 25.7067 103.932 24.48C104.652 23.2533 105.012 21.76 105.012 20C105.012 18.24 104.665 16.7467 103.972 15.52C103.278 14.2933 102.372 13.3867 101.252 12.8C100.132 12.1867 98.9182 11.88 97.6116 11.88C96.2782 11.88 95.0516 12.1867 93.9316 12.8C92.8382 13.3867 91.9582 14.2933 91.2916 15.52C90.6249 16.7467 90.2916 18.24 90.2916 20C90.2916 21.7867 90.6116 23.2933 91.2516 24.52C91.9182 25.7467 92.7982 26.6667 93.8916 27.28C94.9849 27.8667 96.1849 28.16 97.4916 28.16ZM117.158 1.4V31H113.518V1.4H117.158ZM122.001 19.96C122.001 17.72 122.455 15.76 123.361 14.08C124.268 12.3733 125.508 11.0533 127.081 10.12C128.681 9.18667 130.455 8.72 132.401 8.72C134.321 8.72 135.988 9.13333 137.401 9.96C138.815 10.7867 139.868 11.8267 140.561 13.08V9.08H144.241V31H140.561V26.92C139.841 28.2 138.761 29.2667 137.321 30.12C135.908 30.9467 134.255 31.36 132.361 31.36C130.415 31.36 128.655 30.88 127.081 29.92C125.508 28.96 124.268 27.6133 123.361 25.88C122.455 24.1467 122.001 22.1733 122.001 19.96ZM140.561 20C140.561 18.3467 140.228 16.9067 139.561 15.68C138.895 14.4533 137.988 13.52 136.841 12.88C135.721 12.2133 134.481 11.88 133.121 11.88C131.761 11.88 130.521 12.2 129.401 12.84C128.281 13.48 127.388 14.4133 126.721 15.64C126.055 16.8667 125.721 18.3067 125.721 19.96C125.721 21.64 126.055 23.1067 126.721 24.36C127.388 25.5867 128.281 26.5333 129.401 27.2C130.521 27.84 131.761 28.16 133.121 28.16C134.481 28.16 135.721 27.84 136.841 27.2C137.988 26.5333 138.895 25.5867 139.561 24.36C140.228 23.1067 140.561 21.6533 140.561 20ZM158.153 31.36C156.473 31.36 154.966 31.08 153.633 30.52C152.299 29.9333 151.246 29.1333 150.473 28.12C149.699 27.08 149.273 25.8933 149.193 24.56H152.953C153.059 25.6533 153.566 26.5467 154.473 27.24C155.406 27.9333 156.619 28.28 158.113 28.28C159.499 28.28 160.593 27.9733 161.393 27.36C162.193 26.7467 162.593 25.9733 162.593 25.04C162.593 24.08 162.166 23.3733 161.313 22.92C160.459 22.44 159.139 21.9733 157.353 21.52C155.726 21.0933 154.393 20.6667 153.353 20.24C152.339 19.7867 151.459 19.1333 150.713 18.28C149.993 17.4 149.633 16.2533 149.633 14.84C149.633 13.72 149.966 12.6933 150.633 11.76C151.299 10.8267 152.246 10.0933 153.473 9.56C154.699 9 156.099 8.72 157.673 8.72C160.099 8.72 162.059 9.33333 163.553 10.56C165.046 11.7867 165.846 13.4667 165.953 15.6H162.313C162.233 14.4533 161.766 13.5333 160.913 12.84C160.086 12.1467 158.966 11.8 157.553 11.8C156.246 11.8 155.206 12.08 154.433 12.64C153.659 13.2 153.273 13.9333 153.273 14.84C153.273 15.56 153.499 16.16 153.953 16.64C154.433 17.0933 155.019 17.4667 155.713 17.76C156.433 18.0267 157.419 18.3333 158.673 18.68C160.246 19.1067 161.526 19.5333 162.513 19.96C163.499 20.36 164.339 20.9733 165.033 21.8C165.753 22.6267 166.126 23.7067 166.153 25.04C166.153 26.24 165.819 27.32 165.153 28.28C164.486 29.24 163.539 30 162.313 30.56C161.113 31.0933 159.726 31.36 158.153 31.36ZM190.795 31.28C188.955 31.28 187.302 30.96 185.835 30.32C184.395 29.6533 183.262 28.7467 182.435 27.6C181.608 26.4267 181.182 25.08 181.155 23.56H185.035C185.168 24.8667 185.702 25.9733 186.635 26.88C187.595 27.76 188.982 28.2 190.795 28.2C192.528 28.2 193.888 27.7733 194.875 26.92C195.888 26.04 196.395 24.92 196.395 23.56C196.395 22.4933 196.102 21.6267 195.515 20.96C194.928 20.2933 194.195 19.7867 193.315 19.44C192.435 19.0933 191.248 18.72 189.755 18.32C187.915 17.84 186.435 17.36 185.315 16.88C184.222 16.4 183.275 15.6533 182.475 14.64C181.702 13.6 181.315 12.2133 181.315 10.48C181.315 8.96 181.702 7.61333 182.475 6.44C183.248 5.26666 184.328 4.36 185.715 3.72C187.128 3.08 188.742 2.76 190.555 2.76C193.168 2.76 195.302 3.41333 196.955 4.72C198.635 6.02667 199.582 7.76 199.795 9.92H195.795C195.662 8.85333 195.102 7.92 194.115 7.12C193.128 6.29333 191.822 5.88 190.195 5.88C188.675 5.88 187.435 6.28 186.475 7.08C185.515 7.85333 185.035 8.94667 185.035 10.36C185.035 11.3733 185.315 12.2 185.875 12.84C186.462 13.48 187.168 13.9733 187.995 14.32C188.848 14.64 190.035 15.0133 191.555 15.44C193.395 15.9467 194.875 16.4533 195.995 16.96C197.115 17.44 198.075 18.2 198.875 19.24C199.675 20.2533 200.075 21.64 200.075 23.4C200.075 24.76 199.715 26.04 198.995 27.24C198.275 28.44 197.208 29.4133 195.795 30.16C194.382 30.9067 192.715 31.28 190.795 31.28ZM214.992 31.36C212.938 31.36 211.072 30.8933 209.392 29.96C207.738 29.0267 206.432 27.7067 205.472 26C204.538 24.2667 204.072 22.2667 204.072 20C204.072 17.76 204.552 15.7867 205.512 14.08C206.498 12.3467 207.832 11.0267 209.512 10.12C211.192 9.18667 213.072 8.72 215.152 8.72C217.232 8.72 219.112 9.18667 220.792 10.12C222.472 11.0267 223.792 12.3333 224.752 14.04C225.738 15.7467 226.232 17.7333 226.232 20C226.232 22.2667 225.725 24.2667 224.712 26C223.725 27.7067 222.378 29.0267 220.672 29.96C218.965 30.8933 217.072 31.36 214.992 31.36ZM214.992 28.16C216.298 28.16 217.525 27.8533 218.672 27.24C219.818 26.6267 220.738 25.7067 221.432 24.48C222.152 23.2533 222.512 21.76 222.512 20C222.512 18.24 222.165 16.7467 221.472 15.52C220.778 14.2933 219.872 13.3867 218.752 12.8C217.632 12.1867 216.418 11.88 215.112 11.88C213.778 11.88 212.552 12.1867 211.432 12.8C210.338 13.3867 209.458 14.2933 208.792 15.52C208.125 16.7467 207.792 18.24 207.792 20C207.792 21.7867 208.112 23.2933 208.752 24.52C209.418 25.7467 210.298 26.6667 211.392 27.28C212.485 27.8667 213.685 28.16 214.992 28.16ZM235.458 12.08V25C235.458 26.0667 235.684 26.8267 236.138 27.28C236.591 27.7067 237.378 27.92 238.497 27.92H241.178V31H237.898C235.871 31 234.351 30.5333 233.338 29.6C232.324 28.6667 231.818 27.1333 231.818 25V12.08H228.978V9.08H231.818V3.56H235.458V9.08H241.178V12.08H235.458ZM250.028 12.08V25C250.028 26.0667 250.254 26.8267 250.708 27.28C251.161 27.7067 251.948 27.92 253.068 27.92H255.748V31H252.468C250.441 31 248.921 30.5333 247.908 29.6C246.894 28.6667 246.388 27.1333 246.388 25V12.08H243.548V9.08H246.388V3.56H250.028V9.08H255.748V12.08H250.028ZM280.158 19.2C280.158 19.8933 280.118 20.6267 280.038 21.4H262.518C262.651 23.56 263.385 25.2533 264.718 26.48C266.078 27.68 267.718 28.28 269.638 28.28C271.211 28.28 272.518 27.92 273.558 27.2C274.625 26.4533 275.371 25.4667 275.798 24.24H279.718C279.131 26.3467 277.958 28.0667 276.198 29.4C274.438 30.7067 272.251 31.36 269.638 31.36C267.558 31.36 265.691 30.8933 264.038 29.96C262.411 29.0267 261.131 27.7067 260.198 26C259.265 24.2667 258.798 22.2667 258.798 20C258.798 17.7333 259.251 15.7467 260.158 14.04C261.065 12.3333 262.331 11.0267 263.958 10.12C265.611 9.18667 267.505 8.72 269.638 8.72C271.718 8.72 273.558 9.17333 275.158 10.08C276.758 10.9867 277.985 12.24 278.838 13.84C279.718 15.4133 280.158 17.2 280.158 19.2ZM276.398 18.44C276.398 17.0533 276.091 15.8667 275.478 14.88C274.865 13.8667 274.025 13.1067 272.958 12.6C271.918 12.0667 270.758 11.8 269.478 11.8C267.638 11.8 266.065 12.3867 264.758 13.56C263.478 14.7333 262.745 16.36 262.558 18.44H276.398ZM288.603 12.64C289.243 11.3867 290.149 10.4133 291.323 9.72C292.523 9.02667 293.976 8.68 295.683 8.68V12.44H294.723C290.643 12.44 288.603 14.6533 288.603 19.08V31H284.963V9.08H288.603V12.64Z" fill="black"/>
</svg>
